<?xml version="1.0" encoding="UTF-8"?>
<svg width="96px" height="96px" viewBox="0 0 96 96" version="1.1" xmlns="http://www.w3.org/2000/svg" xmlns:xlink="http://www.w3.org/1999/xlink">
    <!-- GenVerator: Sketch 53.2 (72643) - https://sketchapp.com -->
    <title>Combined Shape</title>
    <desc>Created with Sketch.</desc>
    <g id="Page-1" stroke="none" stroke-width="1" fill="none" fill-rule="evenodd">
        <g id="Desktop-HD" transform="translate(-67.000000, -74.000000)" fill="#000">
            <path d="M67,74 L163,74 L163,170 L67,170 L67,74 Z M136.031014,116.543279 C130.714826,121.878296 128.604766,127.807593 126.23525,135.638587 C124.73941,140.660256 121.866868,143.961213 118.546899,144.482559 L116.704236,144.69596 C116.26475,147.181132 116,149.728434 116,152.343267 C116,154.088291 116.132375,155.806301 116.333585,157.5 L118.928139,157.41626 C127.850227,157.151536 134.008321,151.703065 137.743949,140.787216 C138.125189,139.728316 141.058623,125.846468 148.450454,124.522843 L150.295764,124.30404 C150.73525,121.818868 151,119.271566 151,116.659434 C151,114.911709 150.864977,113.193699 150.666415,111.5 L148.069213,111.58374 C148.069213,111.58374 141.024206,111.527013 136.031014,116.543279 Z" id="Combined-Shape"></path>
        </g>
    </g>
</svg>
